<?xml version="1.0" standalone="no"?>
<!DOCTYPE svg PUBLIC "-//W3C//DTD SVG 20010904//EN"
 "http://www.w3.org/TR/2001/REC-SVG-20010904/DTD/svg10.dtd">
<svg version="1.0" xmlns="http://www.w3.org/2000/svg"
 width="512.000000pt" height="512.000000pt" viewBox="0 0 512.000000 512.000000"
 preserveAspectRatio="xMidYMid meet">

<g transform="translate(0.000000,512.000000) scale(0.100000,-0.100000)"
fill="#000000" stroke="none">
<path d="M2430 5059 c-32 -13 -43 -32 -55 -98 l-10 -54 -55 -16 -55 -17 -57
39 c-43 31 -62 38 -82 33 -34 -8 -212 -171 -227 -207 -15 -37 -5 -72 33 -125
l31 -43 -20 -48 c-20 -50 -30 -57 -106 -68 -72 -11 -77 -25 -77 -198 0 -174 6
-191 77 -202 21 -3 47 -8 58 -10 14 -3 28 -22 43 -57 l22 -52 -35 -50 c-59
-86 -52 -104 96 -236 103 -93 119 -97 189 -45 26 19 52 35 58 35 5 0 30 -9 54
-20 46 -20 58 -42 58 -105 0 -12 9 -34 21 -49 l20 -26 153 0 c147 0 153 1 175
23 14 16 24 42 28 76 6 51 7 52 60 77 l54 26 52 -36 c55 -38 78 -43 114 -23
38 21 203 189 209 213 6 25 -6 52 -47 105 l-29 37 21 48 c12 27 23 50 24 52 1
1 28 7 61 13 34 6 69 20 82 32 21 19 22 28 22 169 0 184 0 183 -122 203 -33 5
-40 11 -61 58 l-24 52 39 51 c63 84 58 101 -66 222 -120 118 -132 122 -213 67
-29 -19 -57 -35 -62 -35 -5 0 -29 9 -54 19 -42 18 -44 21 -51 72 -9 68 -19 85
-57 98 -39 14 -255 13 -289 0z m243 -394 c125 -32 225 -113 280 -224 30 -63
32 -72 32 -181 0 -110 -2 -119 -32 -181 -101 -205 -346 -295 -549 -200 -87 41
-167 118 -207 200 -30 63 -32 72 -32 181 0 110 1 118 33 182 86 175 291 271
475 223z"/>
<path d="M860 4327 c-49 -25 -50 -30 -50 -524 l0 -462 -257 -3 c-254 -3 -259
-3 -292 -27 -60 -43 -61 -52 -61 -458 l0 -368 -65 -202 c-96 -301 -118 -283
342 -283 l343 0 2 -192 3 -193 75 0 75 0 3 193 2 192 343 0 c460 0 437 -19
342 282 l-65 203 0 153 0 152 455 0 455 0 0 -710 0 -710 -492 -2 c-418 -3
-493 -5 -490 -17 2 -8 6 -43 9 -78 l6 -63 478 0 479 0 0 -200 0 -200 -115 0
c-123 0 -157 -9 -174 -47 -7 -16 -11 -130 -11 -342 0 -307 1 -319 21 -345 l20
-26 334 0 334 0 20 26 c20 26 21 38 21 345 0 212 -4 326 -11 342 -17 38 -51
47 -174 47 l-115 0 0 200 0 200 464 0 463 0 6 63 c2 34 6 69 8 77 4 13 -54 15
-468 18 l-473 2 0 710 0 710 440 0 440 0 0 -146 0 -145 -66 -210 c-58 -185
-64 -214 -54 -238 6 -16 23 -33 36 -40 17 -7 131 -11 354 -11 l330 0 2 -192 3
-193 78 -3 77 -3 0 196 0 195 348 0 c466 0 443 -19 347 283 l-65 202 0 368 c0
406 -1 415 -61 458 -34 24 -38 24 -296 27 l-263 3 0 464 c0 324 -3 472 -11
489 -20 44 -43 46 -399 44 l-335 -3 -3 -77 -3 -78 296 0 295 0 0 -419 0 -420
-262 -3 c-259 -3 -263 -3 -297 -27 -52 -37 -61 -72 -61 -226 l0 -135 -435 0
-435 0 0 160 0 160 -75 0 -75 0 0 -160 0 -160 -455 0 -455 0 0 143 c0 123 -3
146 -20 174 -40 66 -46 68 -337 71 l-263 3 0 420 0 419 305 0 305 0 0 80 0 80
-347 0 c-259 0 -354 -4 -373 -13z m576 -1454 l-1 -308 -145 -5 c-154 -6 -176
-11 -185 -41 -6 -18 -18 -19 -177 -19 l-170 0 -28 30 -28 30 -171 0 -171 0 0
310 0 310 539 0 538 0 -1 -307z m3324 -3 l0 -310 -145 0 c-132 0 -147 -2 -165
-20 -11 -11 -20 -24 -20 -30 0 -6 -64 -10 -171 -10 l-171 0 -28 30 -28 30
-175 0 -174 0 -1 310 -1 310 539 0 540 0 0 -310z"/>
<path d="M785 1454 c-198 -29 -365 -106 -365 -167 0 -32 64 -83 137 -110 105
-40 209 -57 343 -57 134 0 238 17 343 57 73 27 137 79 137 110 0 49 -96 107
-236 143 -77 20 -290 34 -359 24z"/>
<path d="M4065 1450 c-169 -27 -325 -105 -325 -163 0 -54 126 -120 289 -153
117 -23 354 -15 459 15 130 38 212 92 212 141 0 50 -113 116 -250 145 -91 20
-303 27 -385 15z"/>
<path d="M410 956 l0 -114 39 -35 c41 -37 113 -68 220 -95 103 -25 361 -22
468 5 96 26 195 73 217 105 12 17 16 49 16 135 0 105 -1 112 -17 103 -125 -71
-394 -113 -595 -91 -129 14 -203 32 -285 71 l-63 29 0 -113z"/>
<path d="M3740 955 c0 -111 1 -117 25 -141 33 -33 112 -69 211 -96 65 -17 107
-21 244 -22 186 0 277 17 389 73 86 44 91 54 91 188 l0 113 -40 -20 c-61 -31
-213 -69 -332 -82 -177 -19 -417 15 -539 78 l-49 24 0 -115z"/>
<path d="M410 522 c0 -131 8 -145 103 -192 106 -52 235 -73 417 -67 204 6 336
43 413 115 26 25 27 28 27 139 0 62 -2 113 -4 113 -2 0 -28 -11 -58 -25 -120
-55 -197 -68 -403 -69 -235 -1 -303 12 -482 91 -10 4 -13 -21 -13 -105z"/>
<path d="M3740 517 c0 -111 1 -114 28 -139 37 -35 96 -64 189 -90 68 -20 101
-23 263 -23 163 0 194 3 263 23 93 27 152 55 190 90 26 25 27 28 27 139 0 62
-2 113 -4 113 -2 0 -28 -11 -58 -25 -124 -57 -196 -69 -418 -69 -222 0 -294
12 -418 69 -30 14 -56 25 -58 25 -2 0 -4 -51 -4 -113z"/>
</g>
</svg>
