<?xml version="1.0" standalone="no"?>
<!DOCTYPE svg PUBLIC "-//W3C//DTD SVG 20010904//EN"
 "http://www.w3.org/TR/2001/REC-SVG-20010904/DTD/svg10.dtd">
<svg version="1.0" xmlns="http://www.w3.org/2000/svg"
 width="900.000000pt" height="920.000000pt" viewBox="0 0 900.000000 920.000000"
 preserveAspectRatio="xMidYMid meet">

<g transform="translate(0.000000,920.000000) scale(0.100000,-0.100000)"
fill="#000000" stroke="none">
<path d="M3520 8628 l0 -573 -83 -42 c-45 -24 -108 -66 -139 -93 -71 -63 -152
-183 -175 -258 -23 -78 -23 -229 1 -306 46 -155 211 -325 363 -377 95 -33 240
-33 335 -1 147 51 265 159 343 314 l47 93 -4 135 c-4 123 -7 140 -32 193 -59
122 -179 243 -303 305 l-73 36 0 573 0 573 -140 0 -140 0 0 -572z m270 -865
c108 -44 165 -172 139 -318 -23 -135 -102 -205 -239 -213 -205 -12 -323 103
-307 299 15 178 124 267 307 252 36 -3 81 -12 100 -20z"/>
<path d="M5210 8628 l0 -573 -83 -42 c-104 -54 -183 -124 -247 -219 -65 -98
-84 -162 -84 -289 0 -164 52 -275 191 -405 97 -90 177 -130 284 -139 208 -18
325 24 464 163 85 86 129 155 151 240 16 60 18 212 3 276 -32 141 -169 299
-326 378 l-73 36 0 573 0 573 -140 0 -140 0 0 -572z m275 -867 c105 -46 159
-174 134 -317 -23 -133 -100 -202 -237 -211 -142 -10 -250 44 -289 145 -22 56
-24 187 -4 245 25 74 102 140 183 157 58 12 164 2 213 -19z"/>
<path d="M1590 8059 c-149 -29 -334 -175 -403 -320 -50 -103 -61 -155 -55
-257 12 -201 157 -406 349 -489 l56 -25 6 -156 c4 -87 7 -282 7 -435 l0 -277
54 -108 c103 -206 195 -299 388 -394 l113 -56 353 -5 352 -6 0 145 0 144 -287
0 c-317 0 -400 8 -471 44 -58 29 -164 139 -186 191 -28 65 -36 198 -35 560 l0
350 82 40 c115 56 216 158 277 278 42 83 45 94 48 185 7 183 -35 291 -163 419
-93 94 -181 143 -300 168 -77 16 -118 17 -185 4z m230 -295 c89 -38 142 -131
141 -251 -1 -186 -94 -283 -271 -283 -167 0 -268 89 -278 246 -6 102 12 168
61 222 47 50 80 70 140 82 53 11 161 2 207 -16z"/>
<path d="M7215 8057 c-284 -73 -490 -359 -447 -619 29 -176 163 -354 331 -437
l83 -42 -5 -397 c-6 -498 -10 -515 -130 -629 -107 -101 -124 -105 -522 -112
l-330 -6 0 -140 0 -140 355 4 355 3 115 59 c194 99 278 183 382 384 l52 100 3
400 c2 220 6 418 9 441 4 37 8 42 62 68 141 69 235 163 304 304 31 62 33 76
36 185 5 181 -30 277 -149 398 -30 31 -79 72 -110 93 -114 75 -284 111 -394
83z m240 -296 c50 -22 108 -86 126 -137 17 -50 18 -166 0 -225 -28 -98 -108
-159 -221 -167 -140 -10 -240 36 -289 133 -22 42 -26 62 -26 135 1 47 7 102
14 123 25 75 102 140 183 157 58 12 164 3 213 -19z"/>
<path d="M4238 6650 c-332 -42 -686 -333 -799 -656 -45 -131 -51 -179 -56
-477 l-5 -288 -27 -16 c-87 -54 -173 -149 -220 -241 -21 -42 -23 -61 -32 -425
-9 -367 -5 -1095 7 -1377 7 -167 18 -194 130 -306 114 -115 137 -126 309 -135
181 -10 1736 -10 1921 0 130 7 145 10 190 36 63 37 172 146 209 209 26 44 29
61 36 185 10 180 10 1501 0 1662 -7 110 -11 132 -36 177 -39 71 -113 151 -179
192 l-56 35 0 220 c0 244 -10 363 -41 474 -92 339 -378 620 -728 713 -64 17
-113 21 -316 23 -132 2 -270 0 -307 -5z m678 -320 c176 -81 283 -180 359 -334
24 -50 49 -113 54 -141 5 -27 13 -175 17 -327 l7 -278 -847 0 -846 0 0 203 c0
111 5 254 10 317 9 110 11 120 61 220 44 89 65 118 133 185 84 84 167 135 275
170 72 24 209 31 476 26 l220 -3 81 -38z m661 -1377 c48 -28 48 -29 48 -973 0
-769 -2 -889 -15 -915 -32 -63 26 -60 -1100 -60 -1112 0 -1089 -1 -1113 53
-16 35 -23 1705 -8 1801 6 36 17 71 25 80 9 8 37 18 63 22 27 4 505 6 1063 5
788 -1 1020 -4 1037 -13z"/>
<path d="M4457 4539 c-21 -5 -50 -15 -66 -23 -42 -22 -118 -103 -141 -151 -43
-90 -15 -209 69 -290 l41 -39 0 -308 0 -309 143 3 142 3 3 304 2 304 46 49
c118 126 111 263 -17 384 -71 66 -146 91 -222 73z"/>
<path d="M443 5236 c-237 -60 -443 -310 -443 -538 0 -164 103 -354 251 -463
70 -52 143 -81 239 -96 219 -34 453 98 570 321 l45 85 573 3 572 2 0 140 0
140 -572 0 -573 1 -37 78 c-64 135 -209 265 -347 311 -80 26 -208 34 -278 16z
m206 -277 c68 -14 120 -55 156 -120 27 -49 30 -63 30 -145 0 -81 -3 -97 -30
-149 -39 -77 -89 -112 -177 -127 -137 -24 -256 23 -311 121 -28 49 -31 64 -31
140 0 102 14 150 62 203 71 79 173 105 301 77z"/>
<path d="M8336 5239 c-22 -5 -74 -26 -115 -46 -106 -50 -231 -176 -284 -285
l-38 -78 -569 0 -570 0 0 -140 0 -140 569 0 570 0 41 -79 c77 -147 214 -269
349 -312 90 -28 231 -28 321 0 131 41 273 169 342 308 37 74 41 91 45 175 9
161 -28 277 -121 390 -137 165 -358 249 -540 207z m245 -292 c46 -19 115 -97
128 -143 14 -51 14 -163 0 -219 -14 -54 -67 -119 -123 -147 -60 -32 -201 -32
-271 0 -61 28 -90 55 -118 107 -18 33 -22 57 -22 140 0 85 4 107 24 149 26 53
86 102 149 123 46 16 187 10 233 -10z"/>
<path d="M2530 4690 l0 -140 140 0 140 0 0 140 0 140 -140 0 -140 0 0 -140z"/>
<path d="M6190 4690 l0 -140 139 0 140 0 3 130 c2 72 2 135 0 140 -2 6 -61 10
-143 10 l-139 0 0 -140z"/>
<path d="M2430 3840 c-335 -7 -353 -10 -470 -71 -151 -79 -266 -202 -355 -380
l-55 -108 -2 -338 c-1 -186 -4 -381 -6 -433 l-3 -96 -70 -32 c-47 -22 -94 -56
-143 -103 -143 -135 -187 -228 -188 -393 0 -180 39 -274 168 -403 123 -122
224 -163 399 -163 95 0 158 19 258 77 109 65 209 186 253 310 9 27 19 91 22
144 8 171 -35 276 -169 409 -54 54 -98 88 -158 119 l-83 43 5 406 c5 490 4
487 106 595 76 81 135 113 228 127 37 5 197 10 356 10 l288 0 -3 143 -3 142
-35 1 c-19 0 -172 -2 -340 -6z m-588 -1723 c45 -26 88 -78 107 -130 6 -16 11
-67 11 -115 0 -70 -5 -97 -24 -137 -25 -54 -71 -100 -123 -122 -46 -19 -188
-17 -248 3 -97 34 -155 126 -155 249 0 128 49 216 145 262 45 22 60 24 146 20
82 -3 104 -8 141 -30z"/>
<path d="M6194 3836 c-2 -6 -3 -70 -2 -142 l3 -129 330 -6 c398 -7 415 -11
522 -112 120 -114 124 -131 130 -628 l5 -397 -83 -43 c-117 -60 -230 -174
-285 -283 l-39 -80 0 -135 c0 -114 4 -145 22 -193 53 -142 206 -293 348 -342
74 -26 247 -33 315 -13 144 42 290 168 359 308 76 155 77 309 4 459 -51 104
-178 231 -280 280 -70 33 -73 35 -77 74 -3 23 -7 221 -9 441 l-3 400 -58 111
c-101 195 -188 280 -386 379 l-105 52 -353 6 c-275 4 -354 3 -358 -7z m1231
-1697 c57 -14 117 -67 147 -127 18 -38 23 -63 23 -132 -1 -102 -15 -149 -64
-203 -53 -59 -105 -79 -206 -78 -101 0 -168 25 -219 81 -46 51 -61 100 -60
195 1 134 57 223 162 261 46 16 158 18 217 3z"/>
<path d="M3525 2416 c-187 -60 -350 -224 -407 -410 -17 -55 -20 -85 -15 -155
6 -103 30 -173 96 -273 60 -92 133 -157 238 -211 l83 -42 0 -572 0 -573 140 0
140 0 0 573 0 572 58 29 c143 74 211 135 280 252 61 102 72 142 72 258 0 175
-38 264 -165 391 -86 87 -162 131 -270 160 -71 18 -194 19 -250 1z m280 -294
c22 -11 50 -31 62 -44 94 -100 89 -321 -10 -416 -49 -47 -98 -63 -191 -63
-134 0 -208 38 -252 126 -32 66 -40 138 -24 217 19 100 68 161 157 194 56 21
206 13 258 -14z"/>
<path d="M5215 2416 c-187 -60 -350 -224 -407 -410 -17 -55 -20 -85 -15 -155
6 -103 30 -173 96 -273 60 -92 133 -157 238 -211 l83 -42 0 -572 0 -573 140 0
140 0 0 573 0 573 73 36 c77 39 157 102 214 170 92 110 123 193 123 332 0 171
-40 266 -165 391 -87 87 -165 133 -270 160 -71 18 -195 19 -250 1z m282 -294
c83 -43 126 -128 126 -247 0 -94 -25 -164 -76 -213 -48 -47 -97 -63 -190 -63
-135 0 -209 38 -253 128 -34 68 -41 150 -20 232 24 95 68 145 155 178 55 21
205 12 258 -15z"/>
</g>
</svg>
