<?xml version="1.0" standalone="no"?>
<!DOCTYPE svg PUBLIC "-//W3C//DTD SVG 20010904//EN"
 "http://www.w3.org/TR/2001/REC-SVG-20010904/DTD/svg10.dtd">
<svg version="1.0" xmlns="http://www.w3.org/2000/svg"
 width="900.000000pt" height="520.000000pt" viewBox="0 0 900.000000 520.000000"
 preserveAspectRatio="xMidYMid meet">

<g transform="translate(0.000000,520.000000) scale(0.100000,-0.100000)"
fill="#000000" stroke="none">
<path d="M4130 5189 c-591 -67 -1082 -448 -1206 -937 -23 -89 -24 -112 -25
-391 l0 -296 -47 -30 c-34 -22 -54 -45 -77 -89 -28 -55 -30 -67 -29 -160 0
-98 2 -106 62 -270 86 -236 131 -299 250 -354 53 -24 113 -27 177 -8 17 6 29
-12 92 -141 116 -240 230 -409 371 -549 234 -234 520 -327 818 -265 328 68
601 333 837 811 41 85 89 166 115 195 185 213 204 604 30 631 -32 6 -37 10
-33 28 15 68 35 311 35 430 0 329 -75 548 -252 732 -93 97 -191 167 -320 229
-285 136 -666 163 -996 69 -110 -31 -287 -118 -372 -182 -84 -63 -206 -194
-249 -266 -40 -67 -85 -190 -109 -296 -29 -129 -20 -604 14 -722 3 -10 2 -18
-3 -18 -4 0 -23 43 -41 95 -36 100 -60 140 -92 150 -19 6 -20 16 -20 235 0
302 19 398 111 569 144 267 395 473 702 576 159 53 266 69 467 69 201 0 308
-16 467 -69 312 -104 570 -319 710 -590 89 -175 103 -255 103 -613 l0 -273 25
-24 c32 -33 78 -33 110 0 l25 24 0 330 c0 361 -5 407 -60 548 -147 381 -540
694 -990 791 -186 40 -415 52 -600 31z m-186 -1140 c261 -232 505 -345 888
-408 147 -25 306 -41 394 -41 48 0 66 -4 70 -15 9 -21 -21 -242 -56 -412 -29
-147 -33 -188 -10 -116 17 52 57 132 87 171 31 42 69 43 108 2 74 -77 25 -302
-93 -431 -29 -31 -52 -59 -52 -63 0 -3 -29 -68 -64 -145 -207 -451 -393 -654
-666 -727 -98 -27 -329 -24 -433 4 -210 58 -378 209 -528 476 l-33 59 35 -19
c19 -10 36 -22 39 -25 9 -12 168 -89 235 -114 35 -14 111 -37 167 -52 88 -24
122 -28 235 -28 144 0 160 5 207 69 29 39 29 133 0 172 -45 61 -66 69 -192 72
-67 2 -132 -1 -153 -7 -34 -10 -91 -62 -101 -91 -4 -13 -149 35 -233 77 -97
49 -221 138 -311 225 -80 77 -92 94 -98 131 -3 23 -35 123 -71 222 -36 99 -65
185 -65 191 0 18 47 37 74 30 31 -8 61 -49 101 -143 18 -41 35 -76 38 -79 2
-3 -6 48 -19 112 -39 190 -64 382 -64 489 l0 101 48 82 c85 148 194 249 315
293 88 31 99 28 201 -62z"/>
<path d="M3375 1635 c-82 -24 -253 -71 -380 -105 -419 -112 -631 -197 -792
-319 -74 -56 -84 -68 -121 -143 -103 -209 -142 -430 -142 -805 l0 -183 2400 0
2400 0 0 183 c0 374 -39 595 -142 805 -37 75 -47 87 -121 143 -98 74 -280 163
-444 218 -67 23 -259 77 -425 122 -258 68 -344 92 -449 124 -14 5 -15 -11 -11
-133 6 -181 -11 -250 -112 -455 -140 -284 -259 -460 -431 -633 -66 -66 -153
-142 -192 -168 l-73 -48 -71 48 c-92 61 -244 206 -325 310 -159 203 -354 561
-395 723 -18 71 -21 106 -17 223 2 76 1 138 -2 137 -3 -1 -72 -21 -155 -44z"/>
<path d="M4095 1446 c-41 -40 -75 -78 -75 -83 0 -21 81 -131 125 -172 l46 -42
-86 -216 -86 -215 27 -42 c40 -61 150 -171 227 -228 l67 -50 58 43 c76 59 190
173 230 231 l33 48 -87 215 -86 216 59 62 c32 35 71 82 87 104 l28 42 -21 29
c-11 17 -46 53 -77 81 l-56 51 -169 0 -169 0 -75 -74z"/>
</g>
</svg>
