<?xml version="1.0" standalone="no"?>
<!DOCTYPE svg PUBLIC "-//W3C//DTD SVG 20010904//EN"
 "http://www.w3.org/TR/2001/REC-SVG-20010904/DTD/svg10.dtd">
<svg version="1.0" xmlns="http://www.w3.org/2000/svg"
 width="800.000000pt" height="521.000000pt" viewBox="0 0 800.000000 521.000000"
 preserveAspectRatio="xMidYMid meet">

<g transform="translate(0.000000,521.000000) scale(0.100000,-0.100000)"
fill="#000000" stroke="none">
<path d="M2592 4968 c-8 -8 -12 -60 -12 -169 0 -147 1 -159 20 -172 16 -11 19
-21 14 -45 -8 -38 9 -62 42 -62 32 0 51 38 35 69 -12 21 -11 21 108 21 128 0
166 9 175 44 3 11 6 71 6 132 0 155 -3 158 -146 162 -72 3 -115 9 -128 18 -25
17 -98 18 -114 2z m96 -30 c13 -13 18 -242 6 -272 -4 -11 -19 -16 -45 -16
l-39 0 0 143 c0 79 3 147 7 150 11 11 58 8 71 -5z m252 -158 l0 -130 -105 0
c-63 0 -105 4 -106 10 0 6 -1 62 -1 125 0 63 1 117 1 120 1 3 48 5 106 5 l105
0 0 -130z m-270 -191 c15 -27 6 -49 -19 -49 -24 0 -31 18 -18 48 13 28 23 28
37 1z"/>
<path d="M2762 4892 c-20 -3 -23 -8 -20 -45 l3 -42 90 0 90 0 3 38 c2 26 -1
39 -12 43 -17 7 -120 11 -154 6z m146 -44 c-3 -21 -9 -23 -75 -26 -72 -3 -73
-3 -73 23 0 25 1 25 76 25 72 0 75 -1 72 -22z"/>
<path d="M2745 4780 c-4 -6 7 -10 25 -10 18 0 29 4 25 10 -3 6 -15 10 -25 10
-10 0 -22 -4 -25 -10z"/>
<path d="M2810 4780 c0 -5 12 -10 26 -10 14 0 23 4 19 10 -3 6 -15 10 -26 10
-10 0 -19 -4 -19 -10z"/>
<path d="M2875 4780 c-4 -6 5 -10 19 -10 14 0 26 5 26 10 0 6 -9 10 -19 10
-11 0 -23 -4 -26 -10z"/>
<path d="M2750 4730 c0 -5 12 -10 26 -10 14 0 23 4 19 10 -3 6 -15 10 -26 10
-10 0 -19 -4 -19 -10z"/>
<path d="M2810 4730 c0 -5 11 -10 25 -10 14 0 25 5 25 10 0 6 -11 10 -25 10
-14 0 -25 -4 -25 -10z"/>
<path d="M2880 4730 c0 -5 9 -10 20 -10 11 0 20 5 20 10 0 6 -9 10 -20 10 -11
0 -20 -4 -20 -10z"/>
<path d="M2753 4673 c9 -2 25 -2 35 0 9 3 1 5 -18 5 -19 0 -27 -2 -17 -5z"/>
<path d="M2823 4673 c9 -2 23 -2 30 0 6 3 -1 5 -18 5 -16 0 -22 -2 -12 -5z"/>
<path d="M2883 4673 c9 -2 23 -2 30 0 6 3 -1 5 -18 5 -16 0 -22 -2 -12 -5z"/>
<path d="M5013 4892 c-6 -4 -17 -36 -23 -72 -7 -36 -19 -98 -26 -139 -19 -97
-18 -215 0 -234 11 -11 58 -14 238 -13 122 1 229 5 236 9 28 18 -6 404 -40
444 -8 10 -57 13 -192 13 -99 0 -186 -4 -193 -8z m379 -114 c8 -46 13 -86 11
-90 -2 -5 -94 -8 -205 -8 l-200 0 6 33 c4 17 9 52 12 77 3 25 7 51 10 58 2 9
47 12 177 12 l173 0 16 -82z m18 -138 c0 -19 -7 -20 -210 -20 -115 0 -210 2
-210 4 0 2 3 11 6 20 5 14 33 16 210 16 197 0 204 -1 204 -20z m-7 -57 c13 -3
17 -15 17 -59 l0 -54 -217 2 -217 3 -1 45 c-1 25 2 50 7 56 8 11 373 18 411 7z"/>
<path d="M5030 4530 c0 -22 5 -40 10 -40 6 0 10 18 10 40 0 22 -4 40 -10 40
-5 0 -10 -18 -10 -40z"/>
<path d="M5077 4563 c-11 -10 -8 -71 3 -78 6 -4 10 12 10 39 0 47 -2 51 -13
39z"/>
<path d="M5123 4530 c0 -25 2 -35 4 -22 2 12 2 32 0 45 -2 12 -4 2 -4 -23z"/>
<path d="M5311 4541 c-13 -24 8 -55 34 -50 28 6 42 34 26 53 -18 22 -48 20
-60 -3z m44 -10 c7 -12 -12 -24 -25 -16 -11 7 -4 25 10 25 5 0 11 -4 15 -9z"/>
<path d="M2216 4763 c-3 -3 -6 -17 -6 -29 0 -18 -6 -23 -32 -26 -43 -4 -44
-31 -3 -38 24 -4 31 -11 33 -33 5 -38 32 -36 32 2 0 25 4 30 28 33 16 2 27 9
27 18 0 9 -11 16 -27 18 -22 3 -28 9 -28 27 0 25 -12 39 -24 28z"/>
<path d="M3692 4558 c-9 -9 -12 -68 -12 -210 l0 -198 130 0 c109 0 130 -2 130
-15 0 -12 -13 -15 -59 -15 -33 0 -63 -4 -66 -10 -4 -7 48 -10 150 -10 102 0
154 3 150 10 -3 6 -35 10 -71 10 -50 0 -64 3 -64 15 0 13 21 15 130 15 l130 0
-2 208 -3 207 -265 3 c-198 2 -269 -1 -278 -10z m518 -204 l0 -164 -245 0
-245 0 0 165 0 165 238 2 c130 2 240 2 245 0 4 -2 7 -77 7 -168z"/>
<path d="M4150 4231 c0 -12 6 -21 16 -21 9 0 14 7 12 17 -5 25 -28 28 -28 4z"/>
<path d="M2787 4504 c-12 -13 -8 -582 4 -590 6 -3 15 0 20 7 5 8 8 142 6 298
-2 270 -6 309 -30 285z"/>
<path d="M5663 4396 c-17 -8 -46 -34 -62 -57 -26 -35 -31 -51 -31 -98 0 -36 6
-65 16 -80 17 -23 15 -25 -180 -220 l-196 -196 0 297 c0 163 -4 299 -9 302
-29 18 -31 -29 -29 -513 2 -274 -1 -491 -6 -491 -5 0 -44 36 -88 80 -44 44
-84 80 -89 80 -29 0 3 -47 86 -130 65 -65 95 -102 95 -118 0 -59 -61 -147
-134 -192 l-41 -25 -415 -5 c-472 -6 -463 -4 -550 -94 -24 -25 -47 -46 -50
-46 -3 0 -5 61 -5 135 l1 135 105 106 105 105 37 -16 c83 -35 166 -13 216 56
80 109 -3 269 -139 269 -123 0 -207 -135 -153 -247 l16 -35 -88 -88 c-49 -49
-91 -87 -94 -84 -3 3 -6 184 -6 402 -1 341 -3 397 -15 397 -13 0 -15 -96 -15
-731 l0 -731 -30 23 c-16 13 -81 75 -144 139 -62 63 -118 115 -122 115 -27 0
6 -40 141 -175 l150 -150 0 -360 c0 -302 2 -364 15 -381 8 -10 15 -17 16 -14
1 3 3 232 4 510 2 546 0 525 58 616 17 27 44 50 85 72 l60 32 375 0 c352 0
379 1 443 21 58 18 78 30 125 78 82 84 89 115 89 388 l0 218 203 203 c111 111
207 202 213 202 6 0 26 -7 44 -16 46 -23 131 -13 174 20 91 69 88 209 -7 280
-34 25 -129 32 -174 12z m148 -39 c21 -14 41 -41 53 -70 20 -47 20 -47 0 -93
-23 -58 -58 -85 -115 -91 -105 -11 -184 114 -129 205 43 70 128 92 191 49z
m-1433 -735 c16 -12 37 -39 46 -61 26 -57 15 -106 -35 -153 -34 -32 -47 -38
-85 -38 -144 0 -196 174 -75 252 53 34 101 34 149 0z"/>
<path d="M5676 4305 c-47 -43 -32 -125 27 -150 27 -11 37 -11 67 1 46 19 60
39 60 86 0 80 -94 119 -154 63z m104 -25 c35 -35 20 -83 -32 -95 -52 -13 -88
56 -51 97 21 24 58 23 83 -2z"/>
<path d="M5727 4254 c-14 -14 -7 -35 11 -32 9 2 17 10 17 17 0 16 -18 25 -28
15z"/>
<path d="M4286 3573 c-3 -4 -6 -15 -6 -25 0 -11 -7 -18 -18 -18 -18 0 -42 -18
-42 -31 0 -4 12 -9 28 -11 21 -2 28 -9 30 -31 4 -37 36 -33 40 6 3 21 9 27 28
27 33 0 29 34 -4 38 -13 2 -22 10 -22 22 0 18 -23 34 -34 23z"/>
<path d="M1927 4372 c-21 -8 -54 -29 -75 -48 -20 -19 -49 -45 -64 -58 -41 -36
-39 -93 3 -135 l31 -31 147 0 c141 0 148 1 169 23 30 31 29 81 -1 111 -13 13
-29 37 -36 54 -31 74 -108 111 -174 84z m109 -40 c26 -21 44 -54 44 -81 0 -12
7 -21 15 -21 8 0 22 -11 30 -24 19 -29 4 -72 -29 -79 -51 -12 -238 -6 -266 8
-49 25 -57 92 -14 122 14 10 46 35 70 56 37 30 53 37 87 37 25 0 51 -8 63 -18z"/>
<path d="M1987 4233 l-46 -47 -26 24 c-17 16 -25 19 -25 9 0 -8 12 -22 26 -33
l26 -19 51 51 c28 28 49 54 46 56 -3 3 -26 -16 -52 -41z"/>
<path d="M2250 4036 c0 -18 237 -256 256 -256 31 0 9 31 -109 148 -117 116
-147 139 -147 108z"/>
<path d="M3174 3920 c-71 -72 -131 -133 -133 -135 -2 -3 4 -7 13 -11 12 -4 52
29 147 124 114 114 141 152 110 152 -4 0 -66 -59 -137 -130z"/>
<path d="M7223 3803 c-29 -6 -83 -59 -83 -83 0 -12 -18 -27 -54 -44 -140 -69
-136 -221 6 -281 30 -12 84 -15 285 -15 222 0 252 2 290 19 53 24 77 68 70
126 -8 71 -66 125 -136 125 -23 0 -34 8 -50 35 -37 62 -103 89 -165 65 -15 -5
-26 -6 -26 0 0 28 -89 62 -137 53z m96 -59 c12 -15 21 -33 21 -40 0 -17 8 -17
40 1 39 22 85 18 119 -11 17 -14 31 -34 31 -44 0 -24 18 -35 52 -31 15 1 43
-5 63 -15 68 -32 81 -107 25 -156 l-30 -28 -261 0 c-219 0 -265 3 -292 16 -48
24 -67 53 -67 103 0 37 5 49 36 77 19 19 47 36 62 40 41 8 57 20 54 38 -2 9 7
30 18 46 18 25 28 30 65 30 35 0 48 -5 64 -26z"/>
<path d="M2675 3756 c-87 -40 -158 -140 -171 -240 -12 -93 63 -228 149 -271
100 -48 186 -48 283 3 166 86 196 321 57 454 -83 80 -215 103 -318 54z m105
-51 c0 -40 -3 -45 -22 -45 -13 0 -33 -3 -45 -6 -18 -5 -21 -3 -16 15 5 22 61
81 75 81 4 0 8 -20 8 -45z m79 10 c34 -39 42 -71 15 -61 -9 3 -27 6 -40 6 -22
0 -24 4 -24 45 0 25 4 45 9 45 5 0 23 -16 40 -35z m-171 8 c-2 -5 -9 -24 -17
-44 -10 -27 -26 -42 -58 -58 -50 -24 -53 -25 -53 -10 0 14 107 119 121 119 6
0 9 -3 7 -7z m278 -39 c23 -19 47 -47 52 -63 l11 -30 -49 27 c-30 17 -54 39
-64 60 -30 62 -21 63 50 6z m-188 -118 l3 -57 -58 3 -58 3 3 40 c4 47 15 63
45 67 57 9 62 5 65 -56z m126 44 c4 -4 11 -29 13 -54 l6 -46 -57 0 -56 0 0 59
0 58 43 -4 c23 -2 46 -8 51 -13z m-269 -52 l-3 -43 -46 -3 c-25 -2 -46 1 -46
6 0 14 75 78 97 82 1 0 0 -19 -2 -42z m388 -6 c15 -14 27 -29 27 -34 0 -4 -20
-8 -44 -8 -46 0 -56 11 -56 68 0 20 2 21 23 11 12 -6 34 -23 50 -37z m-388
-120 l3 -43 -26 17 c-37 23 -72 56 -72 66 0 5 21 8 46 6 l46 -3 3 -43z m145
-10 l0 -57 -47 4 c-56 4 -63 11 -63 69 l0 42 55 0 55 0 0 -58z m140 29 c0 -16
-4 -41 -10 -55 -8 -23 -15 -26 -55 -26 l-45 0 0 55 0 55 55 0 c54 0 55 0 55
-29z m120 10 c-13 -25 -59 -61 -76 -61 -15 0 -18 21 -8 58 5 19 13 22 51 22
40 0 43 -2 33 -19z m-430 -90 c32 -14 47 -29 61 -61 24 -53 24 -53 -2 -39 -34
18 -80 62 -95 92 -17 32 -18 32 36 8z m402 -13 c-19 -32 -95 -98 -111 -98 -5
0 2 21 15 47 17 33 35 51 61 64 54 25 58 23 35 -13z m-239 -28 c10 0 9 -90 -1
-90 -17 0 -82 82 -82 103 0 3 17 1 38 -4 20 -5 40 -9 45 -9z m117 -6 c0 -9
-17 -32 -37 -52 l-38 -37 -3 44 c-4 49 6 61 51 61 18 0 27 -5 27 -16z"/>
<path d="M5811 3691 c-17 -17 -19 -35 -20 -140 0 -66 5 -123 10 -126 5 -4 5
-13 -1 -25 -15 -27 -12 -103 4 -126 13 -17 30 -19 211 -22 164 -3 201 -1 220
12 24 16 24 17 24 213 -1 165 -3 201 -16 216 -14 15 -38 17 -215 17 -182 0
-200 -2 -217 -19z m407 -20 c9 -5 12 -24 10 -52 l-3 -44 -200 0 -200 0 -3 38
c-6 66 -1 67 202 67 99 0 187 -4 194 -9z m10 -185 c2 -32 -1 -52 -9 -57 -7 -4
-93 -8 -190 -9 -197 -1 -209 3 -209 64 0 55 6 57 215 54 l190 -3 3 -49z m0
-149 l3 -47 -203 2 -203 3 -3 33 c-6 64 -12 63 205 60 l198 -3 3 -48z"/>
<path d="M5866 3644 c-12 -12 -13 -20 -6 -35 12 -22 30 -25 48 -7 18 18 15 36
-7 48 -15 7 -23 6 -35 -6z m34 -24 c0 -5 -7 -10 -15 -10 -8 0 -15 5 -15 10 0
6 7 10 15 10 8 0 15 -4 15 -10z"/>
<path d="M5860 3495 c-10 -12 -10 -18 0 -30 7 -8 18 -15 25 -15 19 0 36 25 29
44 -8 20 -38 21 -54 1z m40 -15 c0 -5 -4 -10 -10 -10 -5 0 -10 5 -10 10 0 6 5
10 10 10 6 0 10 -4 10 -10z"/>
<path d="M5864 3355 c-16 -41 27 -60 50 -22 8 14 8 20 -4 27 -22 14 -40 12
-46 -5z m36 -15 c0 -5 -4 -10 -10 -10 -5 0 -10 5 -10 10 0 6 5 10 10 10 6 0
10 -4 10 -10z"/>
<path d="M842 3478 l3 -213 270 0 270 0 3 213 2 212 -275 0 -275 0 2 -212z
m388 67 c-58 -58 -109 -105 -115 -105 -10 0 -215 200 -215 210 0 3 98 4 217 2
l217 -3 -104 -104z m-235 -25 c60 -60 113 -110 117 -110 5 0 58 50 120 110 61
61 113 110 115 110 2 0 3 -74 3 -165 l0 -165 -235 0 -234 0 -3 165 c-2 91 -1
165 2 165 3 0 55 -49 115 -110z"/>
<path d="M6648 3443 c-15 -9 -30 -25 -35 -34 -4 -10 -24 -28 -43 -41 -80 -54
-60 -151 37 -177 48 -14 256 -14 303 -1 58 16 75 33 75 78 0 49 -25 79 -71 88
-21 4 -36 13 -40 26 -7 22 -69 52 -90 44 -8 -3 -29 3 -47 14 -39 24 -54 25
-89 3z m77 -42 c7 -22 32 -35 40 -21 13 21 55 10 77 -20 14 -20 30 -30 48 -30
37 0 78 -45 64 -68 -23 -36 -55 -42 -208 -41 -142 1 -150 2 -172 24 -13 13
-24 30 -24 38 0 25 41 67 65 67 18 0 26 8 35 35 10 29 16 35 40 35 19 0 31 -6
35 -19z"/>
<path d="M3546 3375 c-90 -32 -135 -102 -121 -191 6 -42 15 -57 66 -107 33
-33 66 -72 75 -88 8 -16 19 -29 24 -29 5 0 21 20 35 45 15 24 35 47 45 50 11
3 34 24 52 47 67 85 44 220 -45 258 -64 27 -88 30 -131 15z m147 -74 c35 -38
38 -46 36 -89 -1 -26 -6 -55 -11 -65 -15 -30 -89 -77 -121 -77 -36 0 -102 36
-122 66 -41 63 -21 147 45 192 28 19 44 23 84 19 43 -4 55 -10 89 -46z"/>
<path d="M3515 3280 c-3 -5 5 -21 19 -34 31 -28 31 -31 6 -58 -21 -22 -27 -48
-11 -48 4 0 20 9 34 21 l26 20 31 -22 c43 -32 60 -13 26 28 l-26 30 26 28 c18
20 22 31 15 38 -8 8 -19 3 -39 -16 l-28 -27 -24 25 c-25 26 -45 32 -55 15z"/>
<path d="M2020 3213 c-61 -23 -109 -95 -110 -162 0 -19 10 -55 21 -79 18 -36
32 -49 75 -69 65 -30 107 -26 169 17 49 34 65 69 65 144 0 43 -5 58 -32 90
-17 21 -46 45 -64 52 -33 14 -96 17 -124 7z m134 -54 c60 -47 72 -121 30 -182
-41 -61 -117 -76 -181 -36 -79 49 -82 161 -6 218 39 28 120 29 157 0z"/>
<path d="M2028 3155 c-3 -3 4 -30 15 -60 l20 -55 43 0 c32 0 44 4 44 15 0 10
-10 15 -31 15 -26 0 -33 6 -50 45 -19 43 -29 52 -41 40z"/>
<path d="M1427 3187 c-7 -18 382 -407 406 -407 9 0 17 3 17 8 0 9 -402 412
-412 412 -3 0 -8 -6 -11 -13z"/>
<path d="M5470 2945 l-234 -235 -441 0 c-509 0 -502 1 -589 -84 -41 -40 -57
-65 -75 -116 -20 -63 -21 -80 -19 -405 3 -294 5 -340 18 -340 13 0 16 49 20
365 5 349 6 367 26 405 26 47 69 87 127 118 41 22 50 22 482 25 l440 3 225
-226 c124 -124 233 -231 243 -236 13 -7 19 -6 23 5 4 11 -62 84 -212 233
l-218 218 440 3 c241 1 444 0 451 -2 6 -3 14 -18 18 -35 8 -39 58 -101 98
-123 22 -13 54 -18 103 -18 63 0 76 3 113 31 59 42 84 102 79 185 -5 73 -22
103 -86 148 -110 78 -259 23 -306 -112 l-13 -37 -447 -3 c-245 -1 -446 1 -446
5 0 4 98 106 217 225 151 151 214 221 207 228 -7 7 -82 -61 -244 -225z m1012
-110 c54 -36 80 -85 77 -142 -3 -64 -21 -97 -72 -134 -38 -28 -48 -30 -104
-27 -53 3 -68 9 -94 33 -70 66 -84 155 -36 226 48 70 159 92 229 44z"/>
<path d="M6340 2696 c0 -47 3 -86 6 -86 17 0 124 73 124 84 0 7 -10 18 -22 24
-13 6 -42 23 -65 37 l-43 26 0 -85z"/>
<path d="M2733 3041 c-29 -27 -53 -54 -53 -60 0 -20 24 -11 57 21 l33 32 0
-100 c0 -192 49 -289 177 -349 51 -24 57 -25 295 -25 288 0 350 -8 423 -55 41
-26 59 -46 81 -92 l29 -58 3 -292 c2 -249 5 -293 17 -293 13 0 15 43 15 294 0
267 -2 298 -19 338 -27 61 -80 119 -142 153 l-54 30 -300 5 c-283 5 -302 6
-340 27 -63 33 -120 102 -139 166 -17 58 -22 232 -8 241 5 3 22 -8 37 -24 33
-34 45 -38 45 -13 0 19 -78 103 -95 103 -5 0 -34 -22 -62 -49z"/>
<path d="M899 2853 c-1 -4 -2 -19 -2 -33 -2 -21 -8 -26 -37 -30 -22 -3 -35
-10 -35 -20 0 -10 13 -17 35 -20 31 -4 35 -8 35 -35 1 -42 29 -40 33 3 3 29 6
32 38 32 28 0 35 4 32 18 -2 11 -14 18 -35 20 -27 3 -32 7 -35 34 -3 28 -26
53 -29 31z"/>
<path d="M580 2625 c49 -22 80 -54 80 -82 0 -13 4 -23 9 -23 6 0 6 12 0 32 -5
18 -9 34 -9 35 0 8 -62 43 -86 48 -27 6 -27 5 6 -10z"/>
<path d="M570 2577 c13 -7 30 -24 37 -37 9 -18 13 -20 13 -7 0 22 -35 57 -57
57 -13 0 -11 -4 7 -13z"/>
<path d="M342 2478 l-2 -67 -32 -3 c-18 -2 -32 -6 -30 -10 1 -5 2 -30 2 -58
l0 -50 180 0 180 0 0 60 0 60 -36 0 -35 0 2 60 c1 33 -1 63 -4 67 -7 6 -11
-47 -7 -99 l2 -28 -100 0 -99 0 -10 68 -10 67 -1 -67z m268 -133 l0 -46 -157
3 -157 3 -2 35 c-1 19 0 38 3 43 2 4 74 7 159 7 l154 0 0 -45z"/>
<path d="M345 2340 c4 -6 11 -8 16 -5 14 9 11 15 -7 15 -8 0 -12 -5 -9 -10z"/>
<path d="M448 2343 c7 -3 16 -2 19 1 4 3 -2 6 -13 5 -11 0 -14 -3 -6 -6z"/>
<path d="M500 2340 c0 -5 5 -10 10 -10 6 0 10 5 10 10 0 6 -4 10 -10 10 -5 0
-10 -4 -10 -10z"/>
<path d="M558 2343 c7 -3 16 -2 19 1 4 3 -2 6 -13 5 -11 0 -14 -3 -6 -6z"/>
<path d="M1704 2494 c27 -8 64 -27 83 -42 36 -29 73 -95 73 -130 0 -12 4 -22
9 -22 23 0 -15 109 -52 148 -30 33 -64 49 -117 56 l-45 6 49 -16z"/>
<path d="M1660 2440 c0 -6 11 -10 24 -10 39 0 90 -42 106 -88 8 -23 18 -42 22
-42 26 0 -13 82 -53 112 -36 27 -99 44 -99 28z"/>
<path d="M904 2399 c-3 -6 -1 -14 5 -18 7 -4 114 -7 239 -7 195 1 227 3 227
16 0 13 -34 15 -232 18 -164 2 -234 -1 -239 -9z"/>
<path d="M2310 2401 c-8 -6 -11 -14 -6 -18 4 -4 254 -8 554 -9 546 -1 547 -1
599 -24 59 -25 124 -90 148 -146 12 -28 15 -78 15 -228 0 -186 6 -226 29 -212
7 5 11 67 11 191 0 233 -13 285 -92 363 -89 89 -70 86 -698 89 -332 2 -551 -1
-560 -6z"/>
<path d="M1678 2369 c-28 -16 -23 -57 7 -65 35 -9 55 2 55 29 0 40 -28 56 -62
36z m42 -34 c0 -18 -5 -25 -19 -25 -23 0 -34 23 -18 39 19 19 37 12 37 -14z"/>
<path d="M6762 2043 l3 -228 160 0 160 0 3 228 2 227 -165 0 -165 0 2 -227z
m298 -3 l0 -200 -135 0 -135 0 0 200 0 200 135 0 135 0 0 -200z"/>
<path d="M6860 1890 c0 -6 29 -10 66 -10 41 0 63 4 59 10 -3 6 -33 10 -66 10
-33 0 -59 -4 -59 -10z"/>
<path d="M5757 2174 c-4 -4 -7 -18 -7 -31 0 -22 -3 -23 -75 -23 l-75 0 0 -195
0 -195 75 0 c60 0 75 -3 75 -15 0 -12 19 -15 110 -15 90 0 110 3 110 15 0 11
18 15 78 17 l77 3 0 190 0 190 -77 3 c-75 3 -77 3 -80 30 l-3 27 -101 3 c-55
1 -103 0 -107 -4z m183 -234 l0 -210 -80 0 -80 0 0 203 c0 112 3 207 7 210 3
4 39 7 80 7 l73 0 0 -210z m-190 -20 l0 -170 -60 0 -60 0 0 170 0 170 60 0 60
0 0 -170z m340 0 l0 -170 -60 0 -60 0 0 170 0 170 60 0 60 0 0 -170z"/>
<path d="M5833 2073 c15 -2 39 -2 55 0 15 2 2 4 -28 4 -30 0 -43 -2 -27 -4z"/>
<path d="M5815 2020 c3 -5 24 -10 45 -10 21 0 42 5 45 10 4 6 -13 10 -45 10
-32 0 -49 -4 -45 -10z"/>
<path d="M5813 1974 c9 -9 97 -10 97 -1 0 4 -23 7 -52 7 -28 0 -48 -3 -45 -6z"/>
<path d="M5825 1836 c-23 -34 -5 -66 36 -66 39 0 59 43 33 71 -23 26 -50 24
-69 -5z m60 -21 c0 -22 -31 -33 -47 -17 -17 17 -1 44 24 40 15 -2 23 -10 23
-23z"/>
<path d="M5668 2033 c12 -2 32 -2 45 0 12 2 2 4 -23 4 -25 0 -35 -2 -22 -4z"/>
<path d="M5650 1990 c0 -5 15 -10 34 -10 19 0 38 5 41 10 4 6 -10 10 -34 10
-23 0 -41 -4 -41 -10z"/>
<path d="M5663 1949 c12 -7 27 -7 45 0 25 9 24 9 -18 10 -36 0 -41 -2 -27 -10z"/>
<path d="M5660 1845 c-14 -17 -5 -51 15 -59 35 -13 63 21 45 55 -13 23 -43 25
-60 4z m50 -20 c0 -21 -30 -31 -40 -14 -11 17 -3 29 21 29 10 0 19 -7 19 -15z"/>
<path d="M6008 2033 c12 -2 32 -2 45 0 12 2 2 4 -23 4 -25 0 -35 -2 -22 -4z"/>
<path d="M5990 1990 c0 -5 18 -10 40 -10 22 0 40 5 40 10 0 6 -18 10 -40 10
-22 0 -40 -4 -40 -10z"/>
<path d="M5990 1952 c0 -4 18 -6 40 -4 22 2 40 6 40 8 0 2 -18 4 -40 4 -22 0
-40 -3 -40 -8z"/>
<path d="M6002 1847 c-14 -16 -5 -54 14 -61 21 -8 42 3 49 25 12 38 -38 66
-63 36z m48 -21 c0 -8 -5 -18 -11 -22 -14 -8 -33 11 -25 25 10 16 36 13 36 -3z"/>
<path d="M3003 2107 c-61 -62 -69 -99 -30 -135 22 -20 33 -22 165 -22 129 0
144 2 162 20 11 11 20 31 20 45 0 29 -40 75 -65 75 -9 0 -24 9 -34 21 -15 19
-58 33 -136 45 -26 4 -37 -3 -82 -49z m104 3 c4 -17 11 -19 42 -14 33 5 40 3
55 -21 10 -15 23 -24 31 -21 22 8 47 -18 43 -45 l-3 -24 -139 0 c-121 0 -140
2 -150 18 -14 22 0 47 37 65 15 7 27 19 27 26 0 34 49 48 57 16z"/>
<path d="M2515 2073 c-32 -8 -61 -41 -75 -83 -10 -31 -18 -40 -36 -40 -12 0
-45 -18 -73 -40 -79 -63 -93 -151 -34 -221 31 -36 94 -68 135 -69 41 0 42 -15
1 -57 -20 -21 -70 -76 -111 -123 -40 -47 -83 -94 -95 -105 -37 -34 -107 -117
-107 -126 0 -27 38 1 112 83 46 50 112 123 148 162 36 39 82 90 102 114 l38
42 133 0 132 0 145 -145 c80 -80 150 -145 157 -145 30 0 6 32 -119 157 l-133
133 42 0 c119 0 206 47 218 118 15 88 -49 167 -143 179 -37 4 -52 10 -52 21 0
25 -77 90 -114 98 -19 3 -51 1 -70 -6 -33 -11 -37 -10 -63 19 -21 24 -39 32
-73 35 -25 3 -54 2 -65 -1z m104 -49 c17 -14 31 -32 31 -39 0 -23 18 -27 51
-9 66 34 159 -8 174 -78 6 -26 10 -29 36 -23 100 22 190 -95 133 -172 -41 -56
-55 -58 -354 -58 l-275 0 -47 27 c-36 22 -50 38 -64 73 -16 43 -16 49 -1 80
20 43 78 87 125 94 34 6 37 10 43 46 13 78 89 109 148 59z"/>
<path d="M6217 2054 c-19 -19 22 -24 199 -24 152 0 195 3 192 13 -4 9 -53 13
-194 15 -105 1 -193 -1 -197 -4z"/>
<path d="M1633 1857 c-159 -158 -195 -199 -185 -209 10 -10 51 26 209 185 156
155 195 199 185 209 -9 9 -54 -30 -209 -185z"/>
<path d="M6204 1719 c-4 -7 74 -92 194 -211 177 -177 222 -213 222 -178 0 11
-388 400 -399 400 -6 0 -13 -5 -17 -11z"/>
<path d="M3672 1678 c-8 -8 -12 -44 -12 -105 0 -101 1 -100 -62 -94 -10 1 -18
-2 -18 -6 0 -13 124 -133 138 -133 20 0 136 116 128 128 -4 7 -23 12 -41 12
l-34 0 -3 103 -3 102 -40 3 c-23 2 -46 -3 -53 -10z"/>
<path d="M3966 1621 l-69 -70 44 -3 44 -3 3 -102 3 -103 49 0 49 0 3 98 3 97
38 3 c21 2 37 9 37 15 0 12 -120 137 -131 137 -2 0 -36 -31 -73 -69z"/>
<path d="M954 1645 c-2 -11 -3 -92 -2 -180 l3 -160 223 -3 222 -2 0 183 0 184
-220 -1 c-212 -1 -221 -2 -226 -21z m416 -40 l0 -35 -192 2 c-177 3 -193 5
-196 21 -9 46 -3 47 198 47 l190 0 0 -35z m-2 -169 l-3 -108 -184 2 c-101 0
-188 3 -192 6 -5 3 -7 51 -6 107 l2 102 185 5 c102 3 189 2 193 -1 4 -3 6 -54
5 -113z"/>
<path d="M1010 1606 c0 -9 7 -16 16 -16 17 0 14 22 -4 28 -7 2 -12 -3 -12 -12z"/>
<path d="M1067 1614 c-8 -8 1 -24 14 -24 5 0 9 7 9 15 0 15 -12 20 -23 9z"/>
<path d="M1120 1605 c0 -9 5 -15 11 -13 6 2 11 8 11 13 0 5 -5 11 -11 13 -6 2
-11 -4 -11 -13z"/>
<path d="M6775 1460 c-16 -11 -44 -29 -62 -41 -87 -56 -47 -169 61 -169 19 0
37 -6 40 -12 5 -10 7 -10 12 0 3 6 23 12 46 12 30 0 46 7 69 29 35 36 36 51 5
88 -13 15 -26 38 -30 50 -7 23 -67 63 -94 63 -9 0 -30 -9 -47 -20z m102 -32
c13 -12 23 -29 23 -38 0 -9 9 -25 20 -35 11 -10 20 -26 20 -35 0 -32 -22 -40
-117 -40 -86 0 -96 2 -118 24 -33 33 -23 59 39 106 59 46 98 51 133 18z"/>
<path d="M4409 1422 c-24 -22 -32 -37 -33 -67 -1 -30 3 -40 16 -43 13 -3 17 6
20 40 5 67 12 69 306 66 238 -3 255 -4 268 -22 12 -17 14 -116 14 -606 0 -556
-1 -588 -18 -603 -16 -15 -51 -17 -280 -17 -299 0 -292 -2 -292 81 0 43 -3 50
-17 47 -21 -4 -27 -28 -18 -75 8 -45 46 -83 82 -83 17 0 35 -9 48 -26 18 -23
24 -25 43 -15 12 6 21 17 19 24 -1 9 34 13 135 15 127 2 137 1 143 -17 9 -30
34 -33 58 -7 12 13 39 26 60 30 28 5 43 16 57 39 19 31 20 55 20 612 0 637 3
608 -60 640 -24 12 -77 15 -284 15 l-256 0 -31 -28z"/>
<path d="M7250 1381 c0 -25 -5 -30 -27 -33 -38 -4 -41 -27 -4 -34 23 -5 31
-12 33 -32 4 -38 28 -40 28 -3 0 26 4 31 24 31 31 0 53 25 30 34 -8 3 -24 6
-35 6 -14 0 -19 7 -19 30 0 20 -5 30 -15 30 -10 0 -15 -10 -15 -29z"/>
<path d="M4437 1383 c-4 -3 -7 -21 -7 -40 0 -28 3 -33 24 -33 13 0 29 7 36 15
10 12 47 15 215 15 168 0 205 -3 215 -15 10 -12 10 -18 0 -30 -10 -12 -41 -15
-161 -15 l-149 0 12 -25 c11 -25 12 -25 148 -25 110 0 140 -3 150 -15 10 -12
10 -18 0 -30 -10 -12 -40 -15 -150 -15 -75 0 -139 -3 -142 -6 -3 -3 -4 -14 -1
-25 5 -18 15 -19 135 -19 129 0 168 -8 168 -35 0 -27 -39 -35 -172 -35 l-133
0 3 -342 3 -342 -33 -33 c-30 -31 -36 -33 -100 -33 l-68 0 0 -50 c0 -39 4 -51
20 -60 14 -7 103 -10 266 -8 204 3 246 5 254 18 6 9 9 243 7 600 l-2 585 -266
3 c-146 1 -268 -1 -272 -5z m307 -835 c19 -55 -48 -82 -81 -32 -16 26 -16 27
7 46 31 25 62 20 74 -14z m-26 -149 c-2 -19 -7 -33 -13 -32 -12 3 -19 49 -10
71 10 26 27 -2 23 -39z"/>
<path d="M3187 1252 c-15 -17 -17 -63 -17 -450 l0 -431 22 -15 c20 -14 101
-16 683 -16 582 0 663 2 683 16 l22 15 0 433 c0 407 -1 434 -18 449 -17 16
-79 17 -689 17 -636 0 -671 -1 -686 -18z m1311 -444 l2 -378 -620 0 -620 0 0
380 0 380 618 -2 617 -3 3 -377z m-600 -421 c4 -20 -25 -34 -39 -20 -14 14 1
45 20 41 9 -2 17 -11 19 -21z"/>
<path d="M3782 1042 c-20 -13 73 -22 213 -20 116 1 118 1 55 10 -99 14 -253
19 -268 10z"/>
<path d="M3716 991 c-9 -14 89 -21 274 -19 96 1 153 3 125 5 -27 2 -54 8 -60
14 -11 11 -332 12 -339 0z"/>
<path d="M3680 941 c0 -15 99 -21 305 -19 110 1 179 3 153 5 -27 2 -48 8 -48
14 0 5 -83 9 -205 9 -113 0 -205 -4 -205 -9z"/>
<path d="M3660 891 c0 -14 115 -21 334 -19 116 1 190 3 164 5 -27 2 -48 8 -48
14 0 5 -90 9 -225 9 -124 0 -225 -4 -225 -9z"/>
<path d="M3486 842 c-10 -17 99 -22 494 -20 285 1 378 4 335 10 -82 13 -822
22 -829 10z"/>
<path d="M3490 791 c0 -18 74 -21 484 -19 231 1 401 3 376 5 -25 3 -49 8 -54
14 -13 12 -806 12 -806 0z"/>
<path d="M3512 738 c4 -10 103 -13 449 -14 244 0 424 1 399 3 -25 2 -49 8 -54
14 -6 5 -172 9 -404 9 -310 0 -393 -3 -390 -12z"/>
<path d="M3532 688 c4 -10 99 -13 429 -14 233 0 405 1 382 3 -24 2 -43 8 -43
14 0 5 -151 9 -386 9 -304 0 -385 -3 -382 -12z"/>
<path d="M3556 636 c5 -14 53 -16 403 -14 218 1 379 3 359 5 -21 2 -38 8 -38
12 0 5 -164 9 -365 10 -326 2 -364 0 -359 -13z"/>
<path d="M3580 590 c-14 -4 121 -8 300 -9 194 0 331 3 340 9 18 12 -603 12
-640 0z"/>
<path d="M6810 1190 c0 -11 5 -20 10 -20 6 0 10 9 10 20 0 11 -4 20 -10 20 -5
0 -10 -9 -10 -20z"/>
<path d="M7032 1168 c-7 -7 -12 -40 -12 -80 0 -54 -3 -68 -15 -68 -8 0 -15 -4
-15 -10 0 -5 7 -10 15 -10 8 0 15 -6 15 -13 0 -34 35 -47 126 -47 128 0 134 5
134 124 0 58 -4 96 -12 104 -16 16 -220 16 -236 0z m218 -83 l0 -66 -101 3
-102 3 1 58 c0 31 1 59 1 62 1 3 46 5 101 5 l100 0 0 -65z m0 -100 c0 -13 -15
-15 -97 -13 -66 2 -98 7 -101 16 -3 9 21 12 97 12 84 0 101 -3 101 -15z"/>
<path d="M6810 1130 c0 -11 5 -20 10 -20 6 0 10 9 10 20 0 11 -4 20 -10 20 -5
0 -10 -9 -10 -20z"/>
<path d="M1810 1111 c-37 -37 -39 -79 -6 -118 l24 -28 302 0 302 0 25 29 c21
24 24 37 20 69 -10 73 -2 72 -338 75 l-300 3 -29 -30z m110 -62 c0 -24 -27
-36 -48 -22 -23 14 -25 29 -7 47 21 20 55 5 55 -25z"/>
<path d="M6810 1080 c0 -11 5 -20 10 -20 6 0 10 9 10 20 0 11 -4 20 -10 20 -5
0 -10 -9 -10 -20z"/>
<path d="M6810 1020 c0 -15 7 -20 25 -20 29 0 32 8 8 26 -25 19 -33 17 -33 -6z"/>
<path d="M6880 1010 c0 -5 7 -10 15 -10 8 0 15 5 15 10 0 6 -7 10 -15 10 -8 0
-15 -4 -15 -10z"/>
<path d="M6930 1010 c0 -5 9 -10 20 -10 11 0 20 5 20 10 0 6 -9 10 -20 10 -11
0 -20 -4 -20 -10z"/>
<path d="M1855 912 c-76 -9 -101 -90 -44 -143 l31 -29 288 0 c273 0 289 1 313
20 47 37 43 130 -6 146 -21 7 -528 12 -582 6z m60 -82 c0 -30 -35 -40 -55 -15
-10 12 -10 18 0 30 20 25 55 15 55 -15z"/>
<path d="M1834 690 c-55 -22 -69 -91 -30 -137 l24 -28 294 -3 c319 -2 334 0
351 52 14 41 -6 100 -38 114 -31 14 -568 16 -601 2z m84 -77 c5 -33 -30 -48
-53 -23 -15 16 -16 22 -5 35 19 22 54 15 58 -12z"/>
<path d="M2100 441 c0 -39 -1 -40 -37 -43 -38 -3 -38 -3 -41 -50 l-3 -48 106
0 106 0 -3 48 -3 47 -42 3 c-43 3 -43 3 -43 43 0 32 -3 39 -20 39 -17 0 -20
-7 -20 -39z"/>
<path d="M1725 360 c-15 -24 12 -30 131 -30 117 0 124 1 124 20 0 19 -7 20
-124 20 -73 0 -127 -4 -131 -10z"/>
<path d="M2270 350 c0 -19 6 -20 126 -20 114 0 125 2 122 18 -3 15 -18 17
-126 20 -117 2 -122 2 -122 -18z"/>
<path d="M3708 305 c-2 -3 -3 -26 -2 -52 4 -56 -7 -71 -76 -103 -34 -16 -50
-29 -48 -39 3 -14 39 -16 298 -16 331 0 342 3 235 60 l-60 31 -3 62 -3 62
-168 0 c-92 0 -170 -2 -173 -5z"/>
</g>
</svg>
