<?xml version="1.0" standalone="no"?>
<!DOCTYPE svg PUBLIC "-//W3C//DTD SVG 20010904//EN"
 "http://www.w3.org/TR/2001/REC-SVG-20010904/DTD/svg10.dtd">
<svg version="1.0" xmlns="http://www.w3.org/2000/svg"
 width="1600.000000pt" height="800.000000pt" viewBox="0 0 1600.000000 800.000000"
 preserveAspectRatio="xMidYMid meet">

<g transform="translate(0.000000,800.000000) scale(0.100000,-0.100000)"
fill="#000000" stroke="none">
<path d="M8358 6956 c-70 -19 -123 -61 -153 -119 -25 -50 -25 -54 -25 -293 l0
-242 67 -7 c86 -9 111 -19 125 -50 25 -55 -34 -105 -124 -105 -24 0 -49 -4
-56 -9 -10 -6 -12 -71 -10 -319 l3 -310 30 -43 c17 -24 53 -55 85 -73 l55 -31
1080 0 1080 0 51 27 c61 32 99 75 114 126 8 25 10 239 8 674 l-3 636 -30 44
c-21 28 -50 53 -90 73 l-59 30 -1050 2 c-826 1 -1061 -1 -1098 -11z m2122
-796 l0 -660 -975 0 -975 0 0 660 0 660 975 0 975 0 0 -660z"/>
<path d="M8640 6631 c0 -11 -6 -22 -12 -24 -10 -4 -10 -6 0 -6 20 -2 15 -69
-5 -74 -17 -4 -17 -5 0 -6 13 -1 17 -10 17 -35 0 -24 -5 -36 -17 -39 -17 -4
-17 -5 0 -6 20 -1 25 -56 5 -64 -10 -4 -10 -6 0 -6 7 -1 12 -15 12 -35 0 -19
-6 -37 -12 -39 -10 -4 -10 -6 0 -6 8 -1 12 -24 12 -80 0 -54 -4 -81 -12 -84
-10 -4 -10 -6 0 -6 20 -2 15 -69 -5 -74 -17 -4 -17 -5 0 -6 13 -1 17 -10 17
-35 0 -24 -5 -36 -17 -39 -17 -4 -17 -5 0 -6 13 -1 17 -10 17 -35 0 -19 -6
-37 -12 -39 -10 -4 -10 -6 0 -6 7 -1 12 -15 12 -35 0 -19 -6 -37 -12 -39 -10
-4 -10 -6 0 -6 8 -1 12 -24 12 -80 0 -54 -4 -81 -12 -84 -8 -3 -6 -6 5 -6 16
-1 17 30 17 509 0 281 -2 510 -5 510 -3 0 -5 -9 -5 -19z"/>
<path d="M8710 6120 l0 -490 65 0 65 0 0 490 0 490 -65 0 -65 0 0 -490z"/>
<path d="M10170 6100 l0 -460 60 0 60 0 0 460 0 460 -60 0 -60 0 0 -460z"/>
<path d="M8880 6065 l0 -425 60 0 60 0 0 425 0 425 -60 0 -60 0 0 -425z"/>
<path d="M9360 6015 l0 -385 65 0 65 0 0 385 0 385 -65 0 -65 0 0 -385z"/>
<path d="M9680 6005 l0 -375 65 0 65 0 0 375 0 375 -65 0 -65 0 0 -375z"/>
<path d="M9040 5935 l0 -305 65 0 65 0 0 305 0 305 -65 0 -65 0 0 -305z"/>
<path d="M9840 5935 l0 -295 65 0 65 0 0 295 0 295 -65 0 -65 0 0 -295z"/>
<path d="M9520 5875 l0 -235 60 0 60 0 0 235 0 235 -60 0 -60 0 0 -235z"/>
<path d="M9200 5795 l0 -155 65 0 65 0 0 155 0 155 -65 0 -65 0 0 -155z"/>
<path d="M10002 5768 l3 -133 65 0 65 0 3 133 3 132 -71 0 -71 0 3 -132z"/>
<path d="M8620 5580 c0 -7 298 -10 875 -10 577 0 875 3 875 10 0 7 -298 10
-875 10 -577 0 -875 -3 -875 -10z"/>
<path d="M5563 6843 c-12 -2 -20 -10 -17 -17 3 -7 -5 -24 -16 -39 -24 -30 -64
-36 -90 -12 -14 13 -19 13 -37 0 -19 -13 -20 -19 -10 -44 9 -24 7 -34 -7 -56
-15 -22 -24 -26 -51 -23 -28 3 -36 0 -45 -20 -9 -20 -7 -27 15 -44 14 -11 25
-30 25 -44 0 -26 -32 -64 -53 -64 -9 0 -12 -10 -9 -30 3 -23 9 -30 27 -30 46
0 72 -64 40 -100 -13 -14 -13 -19 0 -37 13 -19 19 -20 44 -10 43 16 81 -11 81
-58 0 -50 30 -64 64 -30 38 38 77 32 101 -15 11 -22 19 -26 40 -23 18 4 25 12
25 28 0 28 29 55 60 55 13 0 32 -7 42 -17 17 -15 19 -15 37 1 16 14 17 22 8
46 -17 44 11 80 62 80 50 0 61 29 25 65 -13 13 -24 33 -24 45 0 24 33 60 56
60 12 0 15 6 10 23 -3 12 -6 25 -6 30 0 4 -11 7 -23 7 -30 0 -57 29 -57 60 0
13 7 32 17 42 15 17 15 19 -2 38 -14 15 -22 17 -37 9 -45 -24 -95 16 -85 68 3
19 -1 26 -19 33 -19 8 -29 5 -48 -15 -14 -14 -34 -25 -46 -25 -23 0 -60 33
-60 55 0 8 -3 14 -7 14 -5 -1 -18 -4 -30 -6z m144 -221 c91 -65 79 -218 -21
-266 -49 -23 -106 -20 -147 7 -105 71 -105 193 1 265 44 30 121 27 167 -6z"/>
<path d="M4874 6629 c-3 -6 -2 -14 4 -18 8 -5 -4 -94 -38 -291 -63 -363 -58
-340 -80 -340 -17 0 -20 9 -22 69 l-3 70 -125 -69 c-69 -39 -130 -70 -137 -70
-8 0 -13 24 -15 70 l-3 70 -114 -65 c-62 -36 -115 -65 -117 -65 -2 0 -4 29 -6
65 l-3 65 -125 -69 -125 -69 -3 -246 -2 -246 227 -2 c219 -3 228 -4 231 -23 6
-34 18 -38 72 -25 43 10 51 16 47 31 -5 18 6 19 309 19 l314 0 1 48 c0 26 0
139 -1 252 -1 196 -3 218 -51 503 -27 163 -46 309 -43 322 l6 25 -95 0 c-60 0
-98 -4 -103 -11z m-644 -794 l0 -55 -100 0 -100 0 0 55 0 55 100 0 100 0 0
-55z m260 0 l0 -55 -100 0 -100 0 0 55 0 55 100 0 100 0 0 -55z m270 0 l0 -55
-100 0 -100 0 0 55 0 55 100 0 100 0 0 -55z"/>
<path d="M12378 6393 c-24 -4 -28 -9 -28 -39 0 -23 -9 -44 -27 -64 -35 -39
-81 -43 -124 -11 l-31 23 -28 -27 c-27 -26 -28 -30 -15 -49 8 -11 15 -37 15
-57 0 -53 -48 -93 -102 -86 -35 5 -38 3 -48 -29 -11 -32 -10 -35 24 -65 58
-51 48 -127 -21 -155 -29 -12 -34 -19 -29 -37 3 -12 6 -30 6 -40 0 -13 5 -16
24 -11 28 7 81 -18 96 -45 17 -33 12 -86 -10 -106 -25 -22 -25 -23 4 -59 23
-27 25 -28 47 -12 34 23 83 20 116 -8 23 -20 28 -32 28 -72 1 -47 3 -50 35
-60 33 -11 36 -10 52 17 33 55 88 64 137 23 17 -14 31 -34 31 -45 0 -20 10
-23 58 -13 23 5 28 10 25 25 -8 30 17 78 48 94 39 21 72 19 102 -6 28 -21 50
-17 76 15 10 12 10 19 -3 38 -20 28 -21 77 -1 105 20 29 78 48 104 33 18 -9
21 -6 33 32 10 35 10 42 -2 46 -32 11 -60 51 -60 87 0 40 44 95 75 95 14 0 16
6 11 31 -3 17 -6 35 -6 40 0 5 -16 9 -36 9 -77 0 -121 93 -73 154 l21 27 -28
30 c-26 27 -29 28 -46 12 -57 -52 -160 19 -143 98 5 23 2 28 -26 38 -43 15
-44 15 -57 -15 -17 -35 -71 -57 -110 -43 -32 11 -62 47 -62 74 0 8 -6 14 -12
14 -7 -1 -25 -4 -40 -6z m235 -183 c120 -45 214 -172 224 -303 9 -102 -23
-190 -93 -266 -81 -88 -143 -116 -259 -116 -78 0 -98 4 -150 28 -166 77 -248
255 -196 425 62 205 272 308 474 232z"/>
<path d="M12399 6197 c-61 -17 -131 -59 -165 -99 -84 -100 -105 -249 -51 -360
35 -72 110 -140 185 -168 79 -30 185 -24 259 13 220 113 246 419 47 560 -82
58 -188 78 -275 54z m152 -99 c52 -15 117 -73 140 -122 11 -25 19 -64 19 -101
0 -51 -5 -69 -32 -115 -82 -134 -256 -153 -365 -38 -163 169 11 444 238 376z"/>
<path d="M6200 5990 l0 -400 525 0 c289 0 525 3 525 6 0 3 -38 123 -84 267
-46 144 -103 322 -126 395 l-41 132 -400 0 -399 0 0 -400z m518 278 c7 -7 12
-26 12 -43 0 -38 -16 -55 -50 -55 -33 0 -50 17 -50 51 0 49 56 79 88 47z m199
-14 c15 -24 15 -29 2 -53 -28 -49 -99 -32 -99 24 0 55 67 75 97 29z"/>
<path d="M11579 6343 c-8 -2 -19 -18 -25 -36 -7 -25 -15 -33 -37 -35 -16 -2
-35 2 -43 9 -23 19 -44 -6 -37 -47 7 -42 -10 -64 -48 -64 -37 0 -50 -35 -20
-56 29 -21 27 -58 -5 -83 -26 -20 -30 -55 -6 -57 6 -1 19 -2 27 -3 26 -2 41
-47 25 -76 -19 -35 1 -59 35 -43 35 16 75 -12 75 -51 0 -38 26 -44 57 -14 29
30 39 29 71 -5 33 -34 55 -31 68 11 7 25 15 33 37 35 16 2 35 -2 43 -9 24 -20
45 7 38 50 -7 43 5 57 51 63 37 4 46 34 16 54 -29 21 -27 58 5 83 31 24 28 53
-6 58 -45 6 -66 57 -35 83 14 12 14 15 -1 31 -12 14 -21 16 -35 9 -10 -6 -22
-10 -28 -10 -20 0 -51 40 -51 64 0 34 -26 39 -54 11 -32 -32 -42 -31 -74 3
-15 15 -34 26 -43 25z m127 -182 c32 -20 64 -74 64 -111 0 -12 -8 -38 -17 -57
-49 -103 -198 -95 -239 12 -16 42 -16 48 0 89 30 79 121 110 192 67z"/>
<path d="M7934 5869 c3 -17 6 -35 6 -40 0 -5 25 -9 55 -9 l55 0 0 40 0 40 -61
0 -61 0 6 -31z"/>
<path d="M5663 5808 c3 -13 11 -59 17 -103 18 -127 9 -124 117 -38 l95 77 -33
12 c-19 7 -72 26 -118 43 -83 31 -83 31 -78 9z"/>
<path d="M6018 5793 c-12 -3 -18 -14 -18 -31 0 -47 11 -54 69 -46 l52 7 -3 36
c-3 35 -5 36 -43 38 -22 0 -48 -1 -57 -4z"/>
<path d="M5405 5713 c-42 -6 -47 -15 -39 -57 6 -34 9 -37 35 -32 16 4 42 8 57
11 27 6 28 8 23 43 -7 39 -16 44 -76 35z"/>
<path d="M10820 5658 c0 -13 -3 -33 -6 -44 -5 -20 0 -22 51 -29 31 -3 58 -5
60 -3 1 2 5 19 9 40 l7 36 -43 7 c-24 3 -51 9 -60 11 -14 4 -18 -1 -18 -18z"/>
<path d="M11136 5587 c-10 -50 -7 -54 33 -61 22 -3 46 -8 54 -12 10 -4 17 7
25 36 11 46 14 43 -60 58 -46 9 -46 9 -52 -21z"/>
<path d="M1860 5545 c-63 -20 -120 -72 -161 -147 -33 -61 -34 -66 -34 -178 0
-107 2 -119 28 -170 57 -111 135 -165 237 -165 112 1 187 55 244 174 28 60 31
75 31 161 0 85 -3 102 -31 160 -66 141 -189 205 -314 165z"/>
<path d="M11450 5509 c-6 -23 -10 -42 -8 -44 12 -9 102 -24 108 -18 5 4 11 22
15 40 6 31 5 32 -37 43 -24 6 -49 13 -55 15 -8 3 -17 -12 -23 -36z"/>
<path d="M11753 5435 c-17 -58 -27 -105 -22 -105 14 0 214 43 218 47 6 4 -150
163 -160 163 -3 0 -20 -47 -36 -105z"/>
<path d="M3243 5495 c-55 -23 -118 -91 -149 -158 -26 -55 -29 -73 -29 -162 0
-87 4 -107 26 -155 84 -180 267 -235 400 -122 54 47 85 98 105 174 9 35 19 70
22 78 3 8 5 18 4 21 -29 153 -53 208 -114 270 -18 17 -51 40 -73 50 -48 22
-146 24 -192 4z"/>
<path d="M2590 5441 c-129 -42 -211 -166 -213 -321 -2 -143 58 -258 162 -312
102 -53 208 -33 289 56 69 75 86 123 86 246 1 93 -2 111 -25 160 -33 70 -70
114 -123 145 -45 26 -135 40 -176 26z"/>
<path d="M4146 5434 c-22 -8 -41 -16 -44 -18 -4 -4 17 -76 22 -76 16 0 106 33
106 39 0 22 -23 71 -33 70 -7 0 -30 -7 -51 -15z"/>
<path d="M12070 5334 c-14 -42 -11 -46 51 -67 l46 -15 12 40 c7 22 11 41 9 43
-3 2 -100 35 -104 35 -1 0 -8 -16 -14 -36z"/>
<path d="M3835 5333 c-22 -9 -41 -17 -43 -18 -2 -2 19 -67 24 -73 1 -2 27 4
57 14 l55 17 -13 36 c-14 42 -26 46 -80 24z"/>
<path d="M12372 5227 c-7 -18 -12 -37 -12 -41 0 -8 78 -45 95 -46 10 0 41 68
33 74 -3 3 -99 46 -102 46 -1 0 -7 -15 -14 -33z"/>
<path d="M12663 5085 c-16 -34 -16 -36 3 -50 17 -13 -63 -14 -671 -15 -524 0
-694 -3 -703 -12 -9 -9 -12 -152 -12 -580 l0 -568 86 0 c76 0 85 -2 82 -17 -2
-14 -15 -19 -56 -21 l-52 -3 0 -70 0 -69 44 0 c42 0 44 -1 61 -46 38 -101 130
-164 240 -164 108 0 201 63 246 166 l18 44 300 0 300 0 16 -30 16 -30 59 30
59 30 569 0 569 0 13 -40 c46 -139 219 -210 356 -146 60 28 120 95 135 151 6
22 13 46 15 53 2 9 47 12 179 12 l175 0 0 25 c0 14 5 25 10 25 6 0 10 22 10
49 0 28 -4 53 -10 56 -6 4 -10 65 -10 151 0 122 -3 151 -19 182 -10 20 -72
165 -137 322 -65 156 -126 292 -136 302 -16 16 -41 18 -266 18 -180 0 -251 -3
-260 -12 -9 -9 -12 -129 -12 -480 0 -401 -2 -473 -15 -498 l-16 -30 -456 0
c-455 0 -456 0 -438 20 18 19 31 20 447 20 l428 0 0 561 c0 367 -4 567 -10
580 -10 18 -27 19 -530 19 -286 0 -520 3 -520 8 0 4 4 14 9 22 8 11 -2 21 -39
42 -27 15 -52 28 -55 28 -3 0 -13 -16 -22 -35z m1716 -348 c19 -9 47 -68 132
-277 97 -238 108 -271 109 -327 l0 -63 -83 0 c-77 0 -89 3 -158 39 -81 42
-187 66 -264 59 l-45 -3 0 286 c0 157 3 289 7 292 12 13 277 7 302 -6z m-234
-672 c0 -5 -17 -11 -37 -13 -30 -3 -38 0 -38 13 0 13 8 16 38 13 20 -2 37 -7
37 -13z m-1317 -225 c12 -20 11 -20 -445 -18 -427 3 -458 4 -461 21 -3 16 23
17 445 17 438 0 448 0 461 -20z m-1088 -67 c52 -66 -41 -152 -100 -93 -24 24
-26 77 -3 102 25 28 77 24 103 -9z m2405 7 c26 -29 24 -79 -4 -102 -47 -38
-114 -8 -114 50 0 42 28 72 68 72 19 0 39 -8 50 -20z"/>
<path d="M2980 4881 l-45 -40 30 -30 30 -30 42 37 42 37 -27 33 -27 32 -45
-39z"/>
<path d="M1635 4767 c-114 -53 -220 -224 -274 -438 -16 -63 -32 -135 -36 -161
l-7 -48 367 0 366 0 -6 -55 -7 -55 419 0 419 0 29 -30 29 -30 31 30 31 30 133
0 134 0 -6 30 -7 30 351 0 351 0 -6 45 c-49 321 -190 577 -346 624 -23 7 -126
11 -271 11 -255 0 -273 -4 -353 -65 -28 -21 -38 -24 -55 -16 -22 12 -514 14
-544 2 -13 -5 -30 5 -64 37 -82 79 -93 82 -378 82 -241 0 -252 -1 -300 -23z"/>
<path d="M4722 4213 c-18 -9 -43 -30 -55 -47 -22 -31 -22 -38 -27 -446 -4
-275 -10 -426 -17 -448 -10 -27 -9 -34 3 -39 12 -4 14 -87 14 -569 l0 -564
180 0 180 0 0 640 0 640 25 0 25 0 0 -640 0 -640 585 0 585 0 0 640 c0 633 0
640 20 640 20 0 20 -7 20 -640 l0 -640 270 0 270 0 0 640 c0 633 0 640 20 640
20 0 20 -7 20 -640 l0 -640 585 0 585 0 0 640 c0 633 0 640 20 640 20 0 20 -7
20 -640 l0 -640 185 0 185 0 -2 1013 -3 1014 -28 36 c-55 73 106 67 -1859 67
-1613 0 -1776 -2 -1806 -17z m1118 -1498 l0 -175 -195 0 -195 0 0 175 0 175
195 0 195 0 0 -175z m1560 0 l0 -175 -195 0 -195 0 0 175 0 175 195 0 195 0 0
-175z m440 0 l0 -175 -195 0 -195 0 0 175 0 175 195 0 195 0 0 -175z m-2220
-390 l0 -175 -195 0 -195 0 0 175 0 175 195 0 195 0 0 -175z m438 3 l-3 -173
-195 0 -195 0 -3 173 -2 172 200 0 200 0 -2 -172z m1342 -3 l0 -175 -195 0
-195 0 0 175 0 175 195 0 195 0 0 -175z m440 0 l0 -175 -195 0 -195 0 0 175 0
175 195 0 195 0 0 -175z"/>
<path d="M3126 3855 c-9 -13 -16 -28 -16 -33 0 -10 74 -62 89 -62 5 0 18 15
28 32 l19 33 -43 27 c-53 34 -57 34 -77 3z"/>
<path d="M9660 3755 c0 -13 61 -15 490 -15 429 0 490 2 490 15 0 13 -61 15
-490 15 -429 0 -490 -2 -490 -15z"/>
<path d="M3406 3694 c-9 -19 -16 -37 -16 -39 0 -3 22 -16 50 -30 l50 -25 19
38 20 39 -53 25 -53 26 -17 -34z"/>
<path d="M2456 3664 c-11 -44 -50 -74 -95 -74 -32 0 -44 6 -66 32 -26 31 -27
31 -60 15 -31 -15 -33 -17 -27 -62 4 -41 1 -50 -24 -76 -21 -22 -37 -29 -65
-29 -21 0 -41 5 -44 10 -10 17 -23 11 -45 -20 l-22 -30 26 -31 c27 -32 34 -76
16 -110 -12 -22 -61 -49 -90 -49 -17 0 -20 -6 -20 -40 0 -33 3 -40 19 -40 11
0 33 -12 50 -26 25 -21 31 -33 31 -66 0 -32 -6 -46 -32 -70 l-31 -29 16 -35
c15 -31 19 -33 38 -23 31 16 85 2 109 -29 22 -27 24 -73 6 -113 -10 -23 55
-65 67 -44 14 25 66 47 96 40 39 -8 74 -48 75 -85 1 -26 5 -30 28 -30 14 0 33
-3 42 -6 12 -5 16 0 16 19 0 38 39 77 82 84 33 5 41 2 73 -30 l36 -36 35 16
c25 12 33 21 28 32 -18 42 -15 68 10 98 33 39 68 48 108 28 17 -8 32 -14 33
-13 1 2 11 17 23 34 l21 31 -24 23 c-32 30 -40 71 -21 109 19 35 44 51 80 51
21 0 26 5 26 24 0 13 3 31 6 39 4 11 -4 17 -25 22 -35 7 -81 57 -81 86 0 29
27 77 50 89 18 10 19 12 4 44 -16 31 -18 33 -63 28 -36 -3 -52 1 -73 17 -34
27 -44 72 -25 111 15 29 15 30 -18 50 l-33 21 -26 -26 c-36 -36 -88 -34 -127
4 -19 20 -29 40 -29 60 0 29 -2 31 -39 31 -33 0 -40 -4 -45 -26z m139 -165
c77 -29 155 -102 191 -181 25 -55 29 -75 29 -153 0 -77 -4 -98 -27 -147 -34
-73 -103 -142 -176 -176 -49 -23 -70 -27 -152 -27 -87 0 -100 3 -156 32 -173
90 -247 295 -167 465 84 180 272 257 458 187z"/>
<path d="M2393 3490 c-146 -29 -255 -162 -257 -314 -1 -104 24 -168 93 -237
76 -76 146 -103 252 -97 90 5 155 33 214 93 119 119 127 317 18 444 -47 55
-99 88 -170 106 -62 16 -87 17 -150 5z m148 -105 c89 -32 152 -121 152 -216 1
-213 -252 -312 -400 -157 -106 110 -72 292 69 362 60 30 115 33 179 11z"/>
<path d="M9660 3665 c0 -13 34 -15 245 -15 211 0 245 2 245 15 0 13 -34 15
-245 15 -211 0 -245 -2 -245 -15z"/>
<path d="M12293 3590 c-41 -18 -42 -20 -33 -47 6 -15 13 -33 15 -40 3 -9 18
-6 57 9 29 12 54 22 56 23 8 5 -30 75 -41 74 -6 0 -31 -9 -54 -19z"/>
<path d="M3697 3559 l-16 -39 37 -15 c72 -31 77 -30 90 11 6 21 10 39 9 40 -1
1 -25 11 -53 23 l-51 20 -16 -40z"/>
<path d="M4018 3502 c-60 -14 -108 -29 -108 -33 0 -6 105 -96 172 -147 14 -12
18 -3 38 80 11 51 23 101 26 111 7 21 6 21 -128 -11z"/>
<path d="M9660 3515 c0 -12 19 -15 115 -15 96 0 115 3 115 15 0 12 -19 15
-115 15 -96 0 -115 -3 -115 -15z"/>
<path d="M9950 3515 c0 -13 45 -15 345 -15 300 0 345 2 345 15 0 13 -45 15
-345 15 -300 0 -345 -2 -345 -15z"/>
<path d="M11996 3484 c-22 -8 -41 -16 -44 -18 -6 -7 18 -76 27 -76 25 0 101
34 101 45 0 23 -22 65 -34 64 -6 0 -29 -7 -50 -15z"/>
<path d="M9660 3420 c0 -20 7 -20 495 -20 488 0 495 0 495 20 0 20 -7 20 -495
20 -488 0 -495 0 -495 -20z"/>
<path d="M11695 3393 c-27 -8 -51 -16 -52 -17 -1 -1 2 -19 8 -40 10 -35 12
-37 42 -30 71 15 80 22 73 56 -3 18 -10 35 -14 39 -4 4 -29 0 -57 -8z"/>
<path d="M4310 3358 c-6 -22 -10 -41 -8 -43 12 -9 102 -24 108 -18 12 12 23
73 13 73 -4 0 -29 7 -55 15 l-48 14 -10 -41z"/>
<path d="M9450 3180 c0 -114 -3 -150 -13 -150 -8 0 -11 -14 -9 -45 2 -25 8
-42 13 -39 5 3 9 -89 9 -220 l0 -226 685 0 684 0 3 313 c2 171 2 358 0 415
l-3 102 -685 0 -684 0 0 -150z m1000 -45 l0 -45 -315 0 -315 0 0 45 0 45 315
0 315 0 0 -45z"/>
<path d="M11385 3315 c-49 -11 -50 -12 -47 -46 2 -19 7 -37 10 -41 4 -4 30 -1
57 6 49 12 50 14 47 47 -1 18 -6 36 -10 40 -4 3 -29 0 -57 -6z"/>
<path d="M3301 3266 c-16 -39 -72 -50 -93 -17 -19 30 -48 9 -48 -34 0 -39 -27
-60 -65 -51 -35 9 -51 -16 -29 -49 21 -33 7 -71 -31 -81 -33 -8 -33 -41 0 -56
35 -16 41 -45 16 -79 -26 -35 -18 -63 16 -55 36 10 76 -34 63 -68 -13 -34 14
-51 47 -29 34 23 72 10 80 -27 4 -23 11 -30 29 -30 13 0 24 6 24 13 0 19 33
47 53 47 9 0 26 -9 37 -20 29 -29 58 -13 52 29 -5 37 32 66 72 55 33 -8 42 12
22 51 -18 34 -7 60 30 77 31 14 31 35 -1 60 -28 22 -33 59 -9 82 9 10 13 24 9
36 -5 15 -12 18 -33 14 -38 -8 -67 24 -59 66 8 36 -22 60 -43 35 -26 -31 -76
-11 -93 38 -9 25 -36 21 -46 -7z m80 -169 c22 -15 39 -38 49 -65 13 -37 13
-47 0 -84 -27 -78 -121 -112 -191 -71 -39 23 -73 93 -64 133 8 36 49 88 79
100 39 16 92 11 127 -13z"/>
<path d="M11068 3248 c-49 -10 -52 -15 -42 -65 l6 -29 54 10 c45 8 54 13 54
30 0 29 -11 66 -19 65 -3 -1 -27 -6 -53 -11z"/>
<path d="M8807 3013 c-60 -36 -107 -66 -105 -68 2 -2 122 -54 216 -92 13 -6
15 80 4 173 l-7 51 -108 -64z"/>
<path d="M9106 2968 c4 -24 8 -44 8 -45 1 -1 26 0 54 4 l52 6 0 38 0 39 -60 0
-60 0 6 -42z"/>
<path d="M8460 2940 l0 -40 60 0 60 0 0 40 0 40 -60 0 -60 0 0 -40z"/>
</g>
</svg>
