<?xml version="1.0" standalone="no"?>
<!DOCTYPE svg PUBLIC "-//W3C//DTD SVG 20010904//EN"
 "http://www.w3.org/TR/2001/REC-SVG-20010904/DTD/svg10.dtd">
<svg version="1.0" xmlns="http://www.w3.org/2000/svg"
 width="900.000000pt" height="660.000000pt" viewBox="0 0 900.000000 660.000000"
 preserveAspectRatio="xMidYMid meet">

<g transform="translate(0.000000,660.000000) scale(0.100000,-0.100000)"
fill="#000000" stroke="none">
<path d="M6248 5707 l-887 -892 327 -327 327 -328 77 77 c43 43 78 83 78 91 0
7 -35 71 -77 143 l-76 130 461 462 c254 254 462 465 462 469 0 4 -48 55 -106
114 l-106 106 311 312 c171 171 311 313 311 316 0 6 -206 220 -211 219 -2 0
-403 -402 -891 -892z"/>
<path d="M1605 6439 c-73 -10 -140 -62 -181 -139 -18 -34 -19 -85 -19 -1290
l0 -1255 22 -40 c28 -52 78 -100 128 -121 37 -16 120 -18 1135 -20 602 -1
1105 1 1118 4 16 3 54 51 127 157 l105 153 0 386 0 386 -80 0 -80 0 0 -385 0
-385 -75 0 -75 0 0 385 0 385 -80 0 -80 0 0 -385 0 -385 -75 0 -75 0 0 385 0
385 -80 0 -80 0 0 -385 0 -385 -75 0 -75 0 0 385 0 385 -80 0 -80 0 0 -385 0
-385 -75 0 -75 0 0 385 0 385 -80 0 -80 0 0 -385 0 -385 -75 0 -75 0 0 385 0
385 -80 0 -80 0 0 -385 0 -385 -273 0 -273 0 -37 38 -37 38 0 270 0 271 40 18
40 18 0 213 0 214 -40 20 -40 20 0 213 0 213 38 37 38 37 291 0 291 0 6 48 c3
26 8 95 12 155 l6 107 139 0 c164 0 152 -11 169 145 6 55 14 115 17 133 l5 32
463 0 463 0 5 -22 c3 -13 11 -72 18 -133 19 -169 4 -155 168 -155 l139 0 6
-82 c4 -46 9 -116 12 -155 l6 -73 292 0 292 0 37 -38 37 -38 0 -212 0 -212
-40 -20 -40 -20 0 -130 c0 -72 2 -130 3 -130 2 0 29 37 59 83 48 71 75 96 192
187 l135 105 1 574 c0 412 -3 585 -12 613 -15 50 -78 123 -132 150 l-41 22
-1570 1 c-863 0 -1588 -3 -1610 -6z"/>
<path d="M7188 6001 l-273 -270 55 -56 55 -55 272 272 c150 150 273 275 273
278 0 3 -25 27 -55 53 l-55 48 -272 -270z"/>
<path d="M7410 5779 l-275 -269 55 -55 55 -55 275 275 c151 151 272 276 269
277 -2 2 -27 24 -54 50 l-50 46 -275 -269z"/>
<path d="M7632 5557 l-272 -272 53 -53 52 -52 272 273 272 272 -33 35 c-76 81
-38 103 -344 -203z"/>
<path d="M7845 5340 l-270 -270 55 -55 54 -55 49 48 c27 26 148 150 269 275
l221 228 -48 49 c-27 28 -52 50 -55 50 -3 0 -127 -121 -275 -270z"/>
<path d="M6627 5002 c-229 -229 -417 -421 -417 -426 0 -5 37 -69 82 -143 l81
-135 -384 -384 -384 -384 160 -160 c88 -88 164 -160 170 -160 5 0 181 171 390
380 l380 379 134 -80 135 -80 425 426 426 426 -382 379 c-210 209 -385 380
-390 380 -4 0 -196 -188 -426 -418z"/>
<path d="M8065 5120 l-270 -270 50 -50 c27 -27 53 -50 58 -50 4 0 129 123 277
273 l268 272 -46 48 c-25 26 -51 47 -57 47 -5 0 -132 -121 -280 -270z"/>
<path d="M8285 4900 l-270 -270 55 -55 55 -55 273 273 272 272 -46 53 c-25 28
-51 52 -57 52 -7 0 -134 -121 -282 -270z"/>
<path d="M8475 4640 c-170 -170 -314 -310 -320 -310 -5 0 -58 48 -117 107
l-108 108 -463 -463 c-254 -254 -465 -462 -469 -462 -4 0 -67 36 -140 80
l-132 81 -83 -83 -83 -83 330 -330 330 -330 891 891 890 890 -102 107 c-56 59
-105 107 -108 107 -4 0 -146 -139 -316 -310z"/>
<path d="M4985 4804 l-120 -95 -307 -462 -307 -462 347 -347 347 -348 -83 -82
-82 -83 -330 330 c-286 286 -332 328 -344 315 -7 -8 -47 -67 -89 -131 l-75
-116 304 -304 c167 -167 304 -308 304 -314 0 -5 -35 -45 -77 -87 l-78 -78
-291 291 -292 292 -88 -132 -88 -132 269 -269 270 -270 -80 -80 c-44 -44 -84
-80 -90 -80 -5 0 -107 98 -225 217 -118 119 -229 230 -247 246 l-32 28 -85
-128 -86 -128 230 -230 229 -230 -80 -83 c-44 -45 -83 -82 -87 -82 -4 0 -102
95 -218 211 l-212 212 -59 -89 c-33 -49 -72 -108 -86 -131 l-26 -42 189 -192
189 -192 -40 -46 c-89 -101 -277 -259 -412 -344 -149 -95 -350 -178 -519 -214
-118 -25 -400 -25 -518 0 -401 86 -744 326 -990 695 -180 269 -284 576 -312
923 -41 495 138 1030 488 1466 l74 92 0 286 c0 157 -4 285 -9 285 -16 0 -333
-313 -429 -425 -600 -695 -839 -1474 -687 -2240 180 -905 894 -1634 1776
-1814 417 -85 847 -36 1251 144 283 126 519 291 786 549 l103 100 187 -187
c103 -103 191 -187 195 -187 6 0 238 151 257 167 2 2 -92 100 -210 218 l-213
214 83 81 84 81 230 -230 231 -230 128 85 c70 46 127 86 127 89 0 3 -114 118
-252 255 l-253 249 80 80 c44 44 83 81 86 81 3 0 126 -119 272 -265 146 -146
269 -265 272 -265 5 0 240 154 255 167 2 2 -125 133 -283 291 -158 158 -287
291 -287 297 0 13 142 155 155 155 5 0 147 -137 314 -304 l304 -304 116 76
c64 41 123 81 131 89 13 11 -30 58 -315 343 l-330 330 83 82 82 83 343 -343
c188 -188 347 -342 352 -342 6 0 216 136 467 303 l456 302 96 125 96 125 -408
408 c-224 224 -411 407 -416 407 -5 0 -147 -139 -317 -310 -169 -170 -311
-310 -315 -310 -9 0 -544 535 -544 544 0 5 144 152 533 544 l92 92 -405 405
c-223 223 -407 405 -410 405 -3 -1 -59 -44 -125 -96z"/>
</g>
</svg>
